<svg width="605" height="732" viewBox="0 0 605 732" fill="none" xmlns="http://www.w3.org/2000/svg">
<g filter="url(#filter0_d_282_40)">
<g filter="url(#filter1_d_282_40)">
<path d="M176.839 120.107C176.839 105.36 188.74 93.4045 203.421 93.4045H406.412C421.093 93.4045 432.994 105.36 432.994 120.107C432.994 134.854 421.093 146.809 406.412 146.809H203.421C188.74 146.809 176.839 134.854 176.839 120.107Z" fill="#ACAAAA"/>
<path d="M176.839 66.7023C176.839 51.955 188.74 40 203.421 40C218.102 40 230.003 51.955 230.003 66.7023V120.107C230.003 134.854 218.102 146.809 203.421 146.809C188.74 146.809 176.839 134.854 176.839 120.107V66.7023Z" fill="#ACAAAA"/>
<path d="M379.83 66.7023C379.83 51.955 391.731 40 406.412 40C421.093 40 432.994 51.955 432.994 66.7023V120.107C432.994 134.854 421.093 146.809 406.412 146.809C391.731 146.809 379.83 134.854 379.83 120.107V66.7023Z" fill="#ACAAAA"/>
<path d="M278.334 66.7023C278.334 51.955 290.236 40 304.916 40C319.597 40 331.499 51.955 331.499 66.7023V120.107C331.499 134.854 319.597 146.809 304.916 146.809C290.236 146.809 278.334 134.854 278.334 120.107V66.7023Z" fill="#ACAAAA"/>
</g>
<g filter="url(#filter2_d_282_40)">
<path d="M51.1774 205.071C51.1774 186.301 66.3244 171.086 85.0093 171.086H519.991C538.675 171.086 553.823 186.301 553.823 205.071V423.544C553.823 562.972 441.302 676.002 302.5 676.002C163.698 676.002 51.1774 562.972 51.1774 423.544V205.071Z" fill="#EE6A6A"/>
</g>
<g filter="url(#filter3_d_282_40)">
<path fill-rule="evenodd" clip-rule="evenodd" d="M302.5 253.619C233.099 253.619 176.839 310.133 176.839 379.848C176.839 407.067 185.415 432.274 200.002 452.891C186.936 454.576 176.839 465.79 176.839 479.374C176.839 494.121 188.74 506.076 203.421 506.076H302.266L302.5 506.076L302.734 506.076H401.579C416.26 506.076 428.161 494.121 428.161 479.374C428.161 465.79 418.064 454.576 404.998 452.891C419.585 432.274 428.161 407.067 428.161 379.848C428.161 310.133 371.901 253.619 302.5 253.619ZM302.499 307.023C262.46 307.023 230.002 339.627 230.002 379.847C230.002 401.416 239.337 420.795 254.17 434.13V506.076H350.832V434.126C365.663 420.792 374.996 401.414 374.996 379.847C374.996 339.627 342.538 307.023 302.499 307.023Z" fill="#F5DD76"/>
</g>
</g>
<defs>
<filter id="filter0_d_282_40" x="11.1774" y="0" width="582.645" height="716.002" filterUnits="userSpaceOnUse" color-interpolation-filters="sRGB">
<feFlood flood-opacity="0" result="BackgroundImageFix"/>
<feColorMatrix in="SourceAlpha" type="matrix" values="0 0 0 0 0 0 0 0 0 0 0 0 0 0 0 0 0 0 127 0" result="hardAlpha"/>
<feOffset/>
<feGaussianBlur stdDeviation="20"/>
<feComposite in2="hardAlpha" operator="out"/>
<feColorMatrix type="matrix" values="0 0 0 0 0.0833236 0 0 0 0 0.0507639 0 0 0 0 0.283333 0 0 0 0.03 0"/>
<feBlend mode="normal" in2="BackgroundImageFix" result="effect1_dropShadow_282_40"/>
<feBlend mode="normal" in="SourceGraphic" in2="effect1_dropShadow_282_40" result="shape"/>
</filter>
<filter id="filter1_d_282_40" x="172.839" y="40" width="264.156" height="114.809" filterUnits="userSpaceOnUse" color-interpolation-filters="sRGB">
<feFlood flood-opacity="0" result="BackgroundImageFix"/>
<feColorMatrix in="SourceAlpha" type="matrix" values="0 0 0 0 0 0 0 0 0 0 0 0 0 0 0 0 0 0 127 0" result="hardAlpha"/>
<feOffset dy="4"/>
<feGaussianBlur stdDeviation="2"/>
<feComposite in2="hardAlpha" operator="out"/>
<feColorMatrix type="matrix" values="0 0 0 0 0 0 0 0 0 0 0 0 0 0 0 0 0 0 0.11 0"/>
<feBlend mode="normal" in2="BackgroundImageFix" result="effect1_dropShadow_282_40"/>
<feBlend mode="normal" in="SourceGraphic" in2="effect1_dropShadow_282_40" result="shape"/>
</filter>
<filter id="filter2_d_282_40" x="0.177368" y="124.086" width="604.645" height="606.916" filterUnits="userSpaceOnUse" color-interpolation-filters="sRGB">
<feFlood flood-opacity="0" result="BackgroundImageFix"/>
<feColorMatrix in="SourceAlpha" type="matrix" values="0 0 0 0 0 0 0 0 0 0 0 0 0 0 0 0 0 0 127 0" result="hardAlpha"/>
<feOffset dy="4"/>
<feGaussianBlur stdDeviation="25.5"/>
<feComposite in2="hardAlpha" operator="out"/>
<feColorMatrix type="matrix" values="0 0 0 0 0.084575 0 0 0 0 0.06375 0 0 0 0 0.2125 0 0 0 0.08 0"/>
<feBlend mode="normal" in2="BackgroundImageFix" result="effect1_dropShadow_282_40"/>
<feBlend mode="normal" in="SourceGraphic" in2="effect1_dropShadow_282_40" result="shape"/>
</filter>
<filter id="filter3_d_282_40" x="172.839" y="253.619" width="259.323" height="260.458" filterUnits="userSpaceOnUse" color-interpolation-filters="sRGB">
<feFlood flood-opacity="0" result="BackgroundImageFix"/>
<feColorMatrix in="SourceAlpha" type="matrix" values="0 0 0 0 0 0 0 0 0 0 0 0 0 0 0 0 0 0 127 0" result="hardAlpha"/>
<feOffset dy="4"/>
<feGaussianBlur stdDeviation="2"/>
<feComposite in2="hardAlpha" operator="out"/>
<feColorMatrix type="matrix" values="0 0 0 0 0 0 0 0 0 0 0 0 0 0 0 0 0 0 0.15 0"/>
<feBlend mode="normal" in2="BackgroundImageFix" result="effect1_dropShadow_282_40"/>
<feBlend mode="normal" in="SourceGraphic" in2="effect1_dropShadow_282_40" result="shape"/>
</filter>
</defs>
</svg>
